<?xml version="1.0" encoding="UTF-8"?><svg id="_レイヤー_1" xmlns="http://www.w3.org/2000/svg" viewBox="0 0 1280 1280"><defs><style>.cls-1{font-size:38.72px;}.cls-1,.cls-2{font-family:KozGoPr6N-Regular-83pv-RKSJ-H, 'Kozuka Gothic Pr6N';}.cls-3{fill:#fff;}.cls-2{font-size:68.92px;}</style></defs><rect class="cls-3" x="210.18" y="90.5" width="63.53" height="63.53"/><path d="m273.21,91v62.53h-62.53v-62.53h62.53m1-1h-64.53v64.53h64.53v-64.53h0Z"/><text class="cls-1" transform="translate(231.28 137.58)"><tspan x="0" y="0">1</tspan></text><rect class="cls-3" x="339.24" y="90.5" width="63.53" height="63.53"/><path d="m402.26,91v62.53h-62.53v-62.53h62.53m1-1h-64.53v64.53h64.53v-64.53h0Z"/><text class="cls-1" transform="translate(360.33 137.58)"><tspan x="0" y="0">2</tspan></text><rect class="cls-3" x="468.29" y="90.5" width="63.53" height="63.53"/><path d="m531.32,91v62.53h-62.53v-62.53h62.53m1-1h-64.53v64.53h64.53v-64.53h0Z"/><text class="cls-1" transform="translate(489.39 137.58)"><tspan x="0" y="0">3</tspan></text><text class="cls-1" transform="translate(231.28 331.16)"><tspan x="0" y="0">1</tspan></text><text class="cls-1" transform="translate(287.11 331.16)"><tspan x="0" y="0">＋</tspan></text><text class="cls-1" transform="translate(416.17 331.16)"><tspan x="0" y="0">＋</tspan></text><text class="cls-1" transform="translate(287.11 395.69)"><tspan x="0" y="0">↘</tspan></text><text class="cls-1" transform="translate(416.17 395.69)"><tspan x="0" y="0">↙</tspan></text><text class="cls-1" transform="translate(360.33 331.16)"><tspan x="0" y="0">2</tspan></text><text class="cls-1" transform="translate(351.64 395.69)"><tspan x="0" y="0">↓</tspan></text><text class="cls-1" transform="translate(489.39 331.16)"><tspan x="0" y="0">3</tspan></text><text class="cls-1" transform="translate(222.59 202.11)"><tspan x="0" y="0">×</tspan></text><text class="cls-1" transform="translate(351.64 202.11)"><tspan x="0" y="0">×</tspan></text><text class="cls-1" transform="translate(480.7 202.11)"><tspan x="0" y="0">×</tspan></text><rect class="cls-3" x="597.35" y="90.5" width="63.53" height="63.53"/><path d="m660.38,91v62.53h-62.53v-62.53h62.53m1-1h-64.53v64.53h64.53v-64.53h0Z"/><text class="cls-1" transform="translate(618.45 137.58)"><tspan x="0" y="0">4</tspan></text><rect class="cls-3" x="726.4" y="90.5" width="63.53" height="63.53"/><path d="m789.43,91v62.53h-62.53v-62.53h62.53m1-1h-64.53v64.53h64.53v-64.53h0Z"/><text class="cls-1" transform="translate(747.5 137.58)"><tspan x="0" y="0">5</tspan></text><rect class="cls-3" x="855.46" y="90.5" width="63.53" height="63.53"/><path d="m918.49,91v62.53h-62.53v-62.53h62.53m1-1h-64.53v64.53h64.53v-64.53h0Z"/><text class="cls-1" transform="translate(876.56 137.58)"><tspan x="0" y="0">6</tspan></text><rect class="cls-3" x="984.51" y="90.5" width="63.53" height="63.53"/><path d="m1047.54,91v62.53h-62.53v-62.53h62.53m1-1h-64.53v64.53h64.53v-64.53h0Z"/><text class="cls-1" transform="translate(1005.61 137.58)"><tspan x="0" y="0">7</tspan></text><rect class="cls-3" x="1113.57" y="90.5" width="63.53" height="63.53"/><path d="m1176.6,91v62.53h-62.53v-62.53h62.53m1-1h-64.53v64.53h64.53v-64.53h0Z"/><text class="cls-1" transform="translate(1134.67 137.58)"><tspan x="0" y="0">8</tspan></text><rect class="cls-3" x="210.18" y="219.56" width="63.53" height="63.53"/><path d="m273.21,220.06v62.53h-62.53v-62.53h62.53m1-1h-64.53v64.53h64.53v-64.53h0Z"/><text class="cls-1" transform="translate(231.28 266.63)"><tspan x="0" y="0">1</tspan></text><rect class="cls-3" x="339.24" y="219.56" width="63.53" height="63.53"/><path d="m402.26,220.06v62.53h-62.53v-62.53h62.53m1-1h-64.53v64.53h64.53v-64.53h0Z"/><text class="cls-1" transform="translate(360.33 266.63)"><tspan x="0" y="0">1</tspan></text><rect class="cls-3" x="468.29" y="219.56" width="63.53" height="63.53"/><path d="m531.32,220.06v62.53h-62.53v-62.53h62.53m1-1h-64.53v64.53h64.53v-64.53h0Z"/><text class="cls-1" transform="translate(489.39 266.63)"><tspan x="0" y="0">1</tspan></text><rect class="cls-3" x="339.24" y="413.14" width="63.53" height="63.53"/><path d="m402.26,413.64v62.53h-62.53v-62.53h62.53m1-1h-64.53v64.53h64.53v-64.53h0Z"/><text class="cls-1" transform="translate(360.33 460.22)"><tspan x="0" y="0">6</tspan></text><text class="cls-1" transform="translate(131.11 137.58)"><tspan x="0" y="0">a</tspan></text><text class="cls-1" transform="translate(131.19 266.63)"><tspan x="0" y="0">v</tspan></text><text class="cls-1" transform="translate(102.4 460.22)"><tspan x="0" y="0">結果</tspan></text><rect class="cls-3" x="210.18" y="600.17" width="63.53" height="63.53"/><path d="m273.21,600.67v62.53h-62.53v-62.53h62.53m1-1h-64.53v64.53h64.53v-64.53h0Z"/><text class="cls-1" transform="translate(231.28 647.25)"><tspan x="0" y="0">1</tspan></text><rect class="cls-3" x="339.24" y="600.17" width="63.53" height="63.53"/><path d="m402.26,600.67v62.53h-62.53v-62.53h62.53m1-1h-64.53v64.53h64.53v-64.53h0Z"/><text class="cls-1" transform="translate(360.33 647.25)"><tspan x="0" y="0">2</tspan></text><rect class="cls-3" x="468.29" y="600.17" width="63.53" height="63.53"/><path d="m531.32,600.67v62.53h-62.53v-62.53h62.53m1-1h-64.53v64.53h64.53v-64.53h0Z"/><text class="cls-1" transform="translate(489.39 647.25)"><tspan x="0" y="0">3</tspan></text><text class="cls-1" transform="translate(360.33 840.83)"><tspan x="0" y="0">2</tspan></text><text class="cls-1" transform="translate(416.17 840.83)"><tspan x="0" y="0">＋</tspan></text><text class="cls-1" transform="translate(545.23 840.83)"><tspan x="0" y="0">＋</tspan></text><text class="cls-1" transform="translate(416.17 905.36)"><tspan x="0" y="0">↘</tspan></text><text class="cls-1" transform="translate(545.23 905.36)"><tspan x="0" y="0">↙</tspan></text><text class="cls-1" transform="translate(489.39 840.83)"><tspan x="0" y="0">3</tspan></text><text class="cls-1" transform="translate(480.7 905.36)"><tspan x="0" y="0">↓</tspan></text><text class="cls-1" transform="translate(618.45 840.83)"><tspan x="0" y="0">4</tspan></text><text class="cls-1" transform="translate(351.64 711.78)"><tspan x="0" y="0">×</tspan></text><text class="cls-1" transform="translate(480.7 711.78)"><tspan x="0" y="0">×</tspan></text><text class="cls-1" transform="translate(609.75 711.78)"><tspan x="0" y="0">×</tspan></text><rect class="cls-3" x="597.35" y="600.17" width="63.53" height="63.53"/><path d="m660.38,600.67v62.53h-62.53v-62.53h62.53m1-1h-64.53v64.53h64.53v-64.53h0Z"/><text class="cls-1" transform="translate(618.45 647.25)"><tspan x="0" y="0">4</tspan></text><rect class="cls-3" x="726.4" y="600.17" width="63.53" height="63.53"/><path d="m789.43,600.67v62.53h-62.53v-62.53h62.53m1-1h-64.53v64.53h64.53v-64.53h0Z"/><text class="cls-1" transform="translate(747.5 647.25)"><tspan x="0" y="0">5</tspan></text><rect class="cls-3" x="855.46" y="600.17" width="63.53" height="63.53"/><path d="m918.49,600.67v62.53h-62.53v-62.53h62.53m1-1h-64.53v64.53h64.53v-64.53h0Z"/><text class="cls-1" transform="translate(876.56 647.25)"><tspan x="0" y="0">6</tspan></text><rect class="cls-3" x="984.51" y="600.17" width="63.53" height="63.53"/><path d="m1047.54,600.67v62.53h-62.53v-62.53h62.53m1-1h-64.53v64.53h64.53v-64.53h0Z"/><text class="cls-1" transform="translate(1005.61 647.25)"><tspan x="0" y="0">7</tspan></text><rect class="cls-3" x="1113.57" y="600.17" width="63.53" height="63.53"/><path d="m1176.6,600.67v62.53h-62.53v-62.53h62.53m1-1h-64.53v64.53h64.53v-64.53h0Z"/><text class="cls-1" transform="translate(1134.67 647.25)"><tspan x="0" y="0">8</tspan></text><rect class="cls-3" x="339.24" y="729.23" width="63.53" height="63.53"/><path d="m402.26,729.73v62.53h-62.53v-62.53h62.53m1-1h-64.53v64.53h64.53v-64.53h0Z"/><text class="cls-1" transform="translate(360.33 776.3)"><tspan x="0" y="0">1</tspan></text><rect class="cls-3" x="468.29" y="729.23" width="63.53" height="63.53"/><path d="m531.32,729.73v62.53h-62.53v-62.53h62.53m1-1h-64.53v64.53h64.53v-64.53h0Z"/><text class="cls-1" transform="translate(489.39 776.3)"><tspan x="0" y="0">1</tspan></text><rect class="cls-3" x="597.35" y="729.23" width="63.53" height="63.53"/><path d="m660.38,729.73v62.53h-62.53v-62.53h62.53m1-1h-64.53v64.53h64.53v-64.53h0Z"/><text class="cls-1" transform="translate(618.45 776.3)"><tspan x="0" y="0">1</tspan></text><rect class="cls-3" x="339.24" y="922.81" width="63.53" height="63.53"/><path d="m402.26,923.31v62.53h-62.53v-62.53h62.53m1-1h-64.53v64.53h64.53v-64.53h0Z"/><text class="cls-1" transform="translate(360.33 969.89)"><tspan x="0" y="0">6</tspan></text><text class="cls-1" transform="translate(131.11 647.25)"><tspan x="0" y="0">a</tspan></text><text class="cls-1" transform="translate(131.19 776.3)"><tspan x="0" y="0">v</tspan></text><text class="cls-1" transform="translate(102.4 969.89)"><tspan x="0" y="0">結果</tspan></text><rect class="cls-3" x="468.29" y="922.81" width="63.53" height="63.53"/><path d="m531.32,923.31v62.53h-62.53v-62.53h62.53m1-1h-64.53v64.53h64.53v-64.53h0Z"/><text class="cls-1" transform="translate(489.37 969.89)"><tspan x="0" y="0">9</tspan></text><rect class="cls-3" x="339.24" y="1125.97" width="63.53" height="63.53"/><path d="m402.26,1126.47v62.53h-62.53v-62.53h62.53m1-1h-64.53v64.53h64.53v-64.53h0Z"/><text class="cls-1" transform="translate(360.33 1173.05)"><tspan x="0" y="0">6</tspan></text><rect class="cls-3" x="468.29" y="1125.97" width="63.53" height="63.53"/><path d="m531.32,1126.47v62.53h-62.53v-62.53h62.53m1-1h-64.53v64.53h64.53v-64.53h0Z"/><text class="cls-1" transform="translate(489.37 1173.05)"><tspan x="0" y="0">9</tspan></text><rect class="cls-3" x="597.35" y="1125.97" width="63.53" height="63.53"/><path d="m660.38,1126.47v62.53h-62.53v-62.53h62.53m1-1h-64.53v64.53h64.53v-64.53h0Z"/><text class="cls-1" transform="translate(607.78 1173.05)"><tspan x="0" y="0">12</tspan></text><rect class="cls-3" x="726.4" y="1125.97" width="63.53" height="63.53"/><path d="m789.43,1126.47v62.53h-62.53v-62.53h62.53m1-1h-64.53v64.53h64.53v-64.53h0Z"/><text class="cls-1" transform="translate(736.84 1173.05)"><tspan x="0" y="0">15</tspan></text><rect class="cls-3" x="855.46" y="1125.97" width="63.53" height="63.53"/><path d="m918.49,1126.47v62.53h-62.53v-62.53h62.53m1-1h-64.53v64.53h64.53v-64.53h0Z"/><text class="cls-1" transform="translate(865.89 1173.05)"><tspan x="0" y="0">18</tspan></text><rect class="cls-3" x="984.51" y="1125.97" width="63.53" height="63.53"/><path d="m1047.54,1126.47v62.53h-62.53v-62.53h62.53m1-1h-64.53v64.53h64.53v-64.53h0Z"/><text class="cls-1" transform="translate(994.95 1173.05)"><tspan x="0" y="0">21</tspan></text><text class="cls-1" transform="translate(102.4 1173.05)"><tspan x="0" y="0">結果</tspan></text><text class="cls-2" transform="translate(106.66 559.92)"><tspan x="0" y="0">⇩</tspan></text><text class="cls-2" transform="translate(106.66 1088)"><tspan x="0" y="0">⇩</tspan></text></svg>